<svg fill="none" height="68" viewBox="0 0 211 68" width="211" xmlns="http://www.w3.org/2000/svg"><g fill="#ff6060"><path d="m20.0745 34.6485-11.23436 11.4877v16.1199h-8.84014v-62.2561h8.84014v34.8338l33.51886-34.8338h10.1293l-26.3362 27.9782 28.1779 34.2779h-10.3135z"/><path d="m118.789 57.2534 3.5-6.6703c4.051 2.7793 10.313 4.8174 16.391 4.8174 7.919 0 11.05-2.4087 11.05-6.485 0-10.5613-29.652-1.4823-29.652-20.1962 0-8.5231 7.551-14.0817 19.522-14.0817 6.078 0 13.076 1.6676 17.128 4.2616l-3.683 6.6703c-4.236-2.7793-8.84-3.7057-13.445-3.7057-7.366 0-11.05 2.7793-11.05 6.485 0 11.1171 29.652 2.0381 29.652 20.3814 0 8.5232-7.736 13.8965-20.259 13.8965-7.551.1853-15.286-2.2234-19.154-5.3733z"/><path d="m210.322 33.7221v28.534h-8.104v-6.2997c-2.762 4.2616-8.103 6.6703-15.47 6.6703-10.682 0-17.312-5.7439-17.312-13.8965 0-7.5967 4.788-13.7111 18.785-13.7111h13.445v-1.6676c0-7.2262-4.236-11.3025-12.524-11.3025-5.525 0-11.234 2.0382-14.918 5.0028l-3.499-6.485c4.789-3.891 11.787-6.1145 19.338-6.1145 13.076.1853 20.259 6.485 20.259 19.2698zm-8.472 14.0817v-6.6703h-13.076c-8.472 0-10.866 3.3352-10.866 7.2262 0 4.6321 3.867 7.5967 10.313 7.5967 6.446.1853 11.603-2.594 13.629-8.1526z"/><path d="m91.5323 49.842v12.5994l5.3409-3.1498v-12.5995z"/><path d="m106.266 34.4632-21.9163-12.7847-12.1552-7.0409-11.9711 20.9373.1842 19.6404 21.732 12.7847 2.2101-1.297v-18.5286l9.7609-17.2316 9.9454 5.7438v18.5287l2.21-1.297z"/></g></svg>